<svg version="1.2" xmlns="http://www.w3.org/2000/svg" viewBox="0 0 437 434" width="437" height="434">
	<title>ChatGPT Image 26 de abr</title>
	<style>
		.s0 { fill: #323232 } 
		.s1 { fill: #ab1f1a } 
	</style>
	<g id="Background">
		<path id="Path 1" class="s0" d="m245.5 261.1m30-19.3m120.3-90.8c-0.3 0.8-1.8 5.3-3.2 10-1.5 4.7-5 12.3-7.8 17-2.8 4.7-6.5 10.3-8.2 12.5-1.7 2.2-3.4 4.4-3.8 5-0.4 0.6-4 4.8-8 9.4-4 4.6-12.9 13.4-19.8 19.4-6.9 6.1-18.4 15.4-25.5 20.8-7.1 5.3-22.7 15.9-34.5 23.4-11.8 7.6-31 20-42.5 27.8-11.5 7.7-26.6 18.3-33.5 23.5-6.9 5.2-18.5 15.5-25.7 22.8-10.1 10.1-14 14.8-16 19.2-2.2 4.7-2.7 7.1-2.7 13.7 0 6.7 0.4 8.8 2.6 13 1.4 2.8 4.3 7 6.5 9.4 2.1 2.5 6.1 5.9 8.8 7.6 2.8 1.8 7.9 4.2 11.5 5.5 5.1 1.7 9.5 2.3 20.5 2.7 8.5 0.4 17.9 0.1 24-0.7 5.5-0.7 11.1-1.4 12.5-1.7 1.4-0.2 7-1.5 12.5-2.9 5.5-1.4 14.3-4.1 19.5-6.1 5.2-1.9 13.9-5.7 19.3-8.4 5.3-2.7 12.3-6.6 15.5-8.6 3.1-2 9.1-6.1 13.2-9.1 4.1-3 11.3-9.2 15.8-13.6 4.6-4.5 11.2-11.5 14.6-15.6 3.5-4.1 8.5-10.6 11.3-14.5 2.7-3.9 7.7-12 11.1-18 3.4-6 8.5-16.6 11.3-23.5 2.9-6.9 6-15.6 7.1-19.5 1.1-3.9 2.8-11.3 3.9-16.5 1.1-5.2 2.3-11.7 2.7-14.5 0.3-2.7 0.7-10.9 0.7-18 0-7.1-0.3-16.1-0.7-20-0.4-3.9-1.6-11.5-2.7-17-1.2-5.5-3.5-14.5-5.2-20-1.7-5.5-3.4-11.4-3.9-13-0.5-1.9-0.9-2.5-1.2-1.5z"/>
		<path id="Path 1 copy" class="s1" d="m195 23.4c-4.7 0.7-11 1.8-14 2.5-3 0.6-6.4 1.3-7.5 1.5-1.1 0.2-7.6 2.2-14.5 4.5-6.9 2.3-17.5 6.6-23.5 9.6-6 3-16.6 9.1-23.5 13.6-9.2 6.1-15.5 11.3-24.1 19.8-6.3 6.4-13 13.4-14.8 15.6-1.8 2.2-7.5 10.3-12.6 18-5.1 7.7-11.4 18.3-14 23.5-2.6 5.2-6.8 14.7-9.2 21-2.4 6.3-5.3 15.3-6.4 20-1.1 4.7-2.2 9.4-2.5 10.5-0.2 1.1-0.8 6.3-1.4 11.5-0.6 5.2-1 14.7-0.9 21 0.1 6.3 0.6 14.4 1.1 18 0.5 3.6 1.4 7 1.9 7.5q0.9 1 0.9-0.5c0-0.8 1.1-3.7 2.6-6.5 1.4-2.7 5-8.6 7.9-13 3-4.4 9-12.3 13.3-17.5 4.4-5.2 11.1-12.4 14.8-16 3.8-3.6 9.8-9 13.3-12 3.5-3 10.7-8.8 16-12.7 5.3-4 12.3-9.2 15.6-11.7 3.3-2.4 9.4-6.5 13.5-9.1 4.1-2.7 8.6-5.6 10-6.5 1.4-0.9 14.6-8.9 29.5-17.7 14.9-8.8 29.8-17.6 33.3-19.6 3.4-2.1 6.4-3.7 6.7-3.7 0.3 0 2.2-1.1 4.3-2.4 2-1.3 13.4-7.5 25.2-13.8 11.8-6.3 23.1-12.1 25-13 1.9-0.9 7.5-3.5 12.5-5.9 5-2.3 14.9-6.6 22-9.4 7.4-3 12.4-5.4 11.5-5.8-0.8-0.3-6.9-2.9-13.5-5.7-6.6-2.9-17.4-6.7-24-8.6-6.6-2-17.2-4.4-23.5-5.5-6.9-1.2-17.8-2.2-27-2.4-9.9-0.3-18.6 0.1-24 0.9zm101.5 204.1c4.4-3.3 8.2-6.2 8.5-6.5 0.3-0.3 2.1-1.8 4-3.4 1.9-1.5 5.5-4.5 8-6.5 2.5-2 10.1-9.2 17-16.1 6.9-6.9 15.3-16.1 18.6-20.5 3.3-4.4 7.9-10.7 10.1-14 2.2-3.3 5.4-9.6 7-14 1.7-4.4 3.5-9.8 4-12 0.5-2.2 1-7.6 1.2-12 0.1-4.8-0.5-10.4-1.4-14-0.9-3.3-3-8.4-4.8-11.4-1.8-2.9-5.9-8.1-9.2-11.4-3.3-3.3-8.6-7.7-11.7-9.8-3.5-2.4-7.5-4.1-10-4.5-2.4-0.3-5.7-0.6-7.3-0.8-1.6-0.2-5.9 0-9.5 0.4-3.6 0.4-9.6 1.7-13.5 3-3.9 1.2-8.8 2.9-11 3.9-2.2 0.9-8.7 3.9-14.5 6.8-5.8 2.9-14.1 7.2-18.5 9.6-4.4 2.4-17.2 9.7-28.5 16.1-11.3 6.4-20.6 11.6-20.7 11.6-0.2 0-4.2 2.4-9 5.3-4.9 3-10.8 6.5-13.3 7.9-2.5 1.4-11.9 7-21 12.5-9.1 5.4-21.5 13.2-27.5 17.3-6 4-16.2 11.2-22.5 15.9-6.3 4.7-12 9-12.6 9.6-0.6 0.5-3.1 2.6-5.5 4.5-2.4 1.9-10.5 9.5-17.9 17-7.4 7.4-16.4 17.6-19.8 22.5-3.5 5-8.3 13-10.7 18-2.4 5-5.4 12.6-6.7 17-1.7 6.1-2.2 10.5-2.1 18.5 0 8.3 0.6 12.3 2.7 19.3 1.4 4.8 4.2 12 6.2 16 2 3.9 6.8 11.5 10.7 16.7 3.9 5.2 11.9 14.2 17.7 20 5.8 5.8 14.1 13 18.5 16.2 4.4 3.1 10.9 7.4 14.5 9.6 3.6 2.1 10.5 6 15.5 8.6 5 2.5 9.1 4.5 9.1 4.4 0.1-0.2-0.7-3.7-1.7-7.8-1.3-4.9-1.9-10.2-1.8-15.5 0.1-4.4 0.7-10 1.2-12.5 0.5-2.5 2.6-8.1 4.7-12.5 2-4.4 6.5-11.8 10-16.5 3.4-4.7 9.7-11.9 13.9-16 4.3-4.1 12.9-11.5 19.2-16.4 6.3-4.9 20-14.5 30.4-21.5 10.5-6.9 23.5-15.5 29-19 5.5-3.5 11.6-7.4 13.5-8.7 1.9-1.2 33.1-21.6 37.5-24.9z"/>
	</g>
</svg>